<svg id="visual" viewBox="0 0 900 600" width="900" height="600" xmlns="http://www.w3.org/2000/svg" xmlns:xlink="http://www.w3.org/1999/xlink" version="1.1">
    <rect x="0" y="0" width="900" height="600" fill="#002233"></rect>
    <defs>
        <linearGradient id="grad1_0" x1="33.3%" y1="100%" x2="100%" y2="0%">
            <stop offset="20%" stop-color="#002233" stop-opacity="1"></stop>
            <stop offset="80%" stop-color="#002233" stop-opacity="1"></stop>
        </linearGradient>
    </defs>
    <defs>
        <linearGradient id="grad2_0" x1="0%" y1="100%" x2="66.7%" y2="0%">
            <stop offset="20%" stop-color="#002233" stop-opacity="1"></stop>
            <stop offset="80%" stop-color="#002233" stop-opacity="1"></stop>
        </linearGradient>
    </defs>
    <g transform="translate(900, 600)">
        <path d="M-378.6 0C-350.5 -18.7 -322.4 -37.4 -324.6 -64.6C-326.9 -91.7 -359.4 -127.3 -349.8 -144.9C-340.1 -162.4 -288.4 -162 -270.2 -180.6C-252.1 -199.2 -267.6 -236.8 -262.3 -262.3C-257.1 -287.9 -231.1 -301.3 -204.4 -306C-177.8 -310.7 -150.5 -306.6 -127.4 -307.7C-104.4 -308.7 -85.7 -314.9 -65.2 -327.6C-44.6 -340.3 -22.3 -359.4 0 -378.6L0 0Z" fill="#0066FF"></path>
    </g>
    <g transform="translate(0, 0)">
        <path d="M378.6 0C351.8 20.5 325 41 318.8 63.4C312.5 85.9 326.7 110.3 332.6 137.8C338.5 165.3 336.1 195.9 314.8 210.3C293.5 224.8 253.2 223.2 224.9 224.9C196.5 226.6 180.1 231.6 169.4 253.6C158.8 275.6 153.7 314.5 137.8 332.6C121.8 350.7 94.8 347.9 70 352.1C45.2 356.3 22.6 367.4 0 378.6L0 0Z" fill="#0066FF"></path>
    </g>
</svg>